<svg width="21" height="21" viewBox="0 0 21 21" fill="none" xmlns="http://www.w3.org/2000/svg">
<path fill-rule="evenodd" clip-rule="evenodd" d="M17.9648 3.03517C17.1451 2.21539 16.0342 1.75331 14.8748 1.74984H6.12516C4.96582 1.75331 3.85495 2.21539 3.03517 3.03517C2.21539 3.85495 1.75331 4.96582 1.74984 6.12516V14.8748C1.75331 16.0342 2.21539 17.1451 3.03517 17.9648C3.85495 18.7846 4.96582 19.2467 6.12516 19.2502H14.8748C16.0342 19.2467 17.1451 18.7846 17.9648 17.9648C18.7846 17.1451 19.2467 16.0342 19.2502 14.8748V6.12516C19.2467 4.96582 18.7846 3.85495 17.9648 3.03517ZM6.12516 0H14.8748C18.2437 0 21 2.75625 21 6.12516V14.8748C21 18.2437 18.2437 21 14.8748 21H6.12516C2.75625 21 0 18.2437 0 14.8748V6.12516C0 2.75625 2.75625 0 6.12516 0ZM15.4582 5.90396C15.674 6.04818 15.9278 6.12515 16.1873 6.12515C16.3598 6.12552 16.5306 6.09183 16.6901 6.026C16.8495 5.96017 16.9943 5.86351 17.1163 5.74156C17.2382 5.61961 17.3349 5.47477 17.4007 5.31536C17.4665 5.15596 17.5002 4.98512 17.4998 4.81265C17.4998 4.55306 17.4229 4.29931 17.2786 4.08347C17.1344 3.86763 16.9294 3.6994 16.6896 3.60006C16.4498 3.50072 16.1859 3.47473 15.9313 3.52537C15.6767 3.57602 15.4428 3.70102 15.2593 3.88458C15.0757 4.06813 14.9507 4.302 14.9001 4.5566C14.8494 4.8112 14.8754 5.0751 14.9748 5.31492C15.0741 5.55475 15.2423 5.75974 15.4582 5.90396ZM12.4446 7.58972C11.869 7.20512 11.1923 6.99984 10.5 6.99984C9.57201 7.00083 8.68231 7.36992 8.02611 8.02611C7.36992 8.6823 7.00084 9.572 6.99985 10.5C6.99985 11.1923 7.20513 11.869 7.58973 12.4446C7.97433 13.0202 8.52098 13.4688 9.16055 13.7337C9.80012 13.9986 10.5039 14.068 11.1828 13.9329C11.8618 13.7978 12.4855 13.4645 12.975 12.975C13.4645 12.4855 13.7978 11.8618 13.9329 11.1828C14.068 10.5039 13.9986 9.80012 13.7337 9.16055C13.4688 8.52098 13.0202 7.97433 12.4446 7.58972ZM7.58326 6.13478C8.44662 5.5579 9.46165 5.25 10.5 5.25C11.8924 5.25 13.2277 5.80312 14.2123 6.78769C15.1969 7.77225 15.75 9.10761 15.75 10.5C15.75 11.5383 15.4421 12.5534 14.8652 13.4167C14.2883 14.2801 13.4684 14.953 12.5091 15.3504C11.5498 15.7477 10.4942 15.8517 9.47578 15.6491C8.45738 15.4465 7.52192 14.9465 6.78769 14.2123C6.05347 13.4781 5.55345 12.5426 5.35088 11.5242C5.14831 10.5058 5.25227 9.45022 5.64963 8.49091C6.04699 7.5316 6.7199 6.71166 7.58326 6.13478Z" fill="white"/>
</svg>
